<svg width="800" height="600" viewBox="0 0 800 600" fill="none" xmlns="http://www.w3.org/2000/svg">
  <rect width="800" height="600" fill="url(#bg-gradient2)"/>
  <g transform="translate(80, 180)">
    <path d="M 60 160 L 140 110 L 280 90 L 480 90 L 580 110 L 640 160 L 640 210 L 60 210 Z" 
          fill="url(#car-gradient2)" stroke="#1E3A8A" stroke-width="3"/>
    <path d="M 210 110 L 260 70 L 420 70 L 470 110 Z" 
          fill="rgba(96, 165, 250, 0.3)" stroke="#60A5FA" stroke-width="2"/>
    <ellipse cx="190" cy="130" rx="45" ry="32" fill="rgba(96, 165, 250, 0.2)"/>
    <ellipse cx="510" cy="130" rx="45" ry="32" fill="rgba(96, 165, 250, 0.2)"/>
    <circle cx="160" cy="210" r="48" fill="#1F2937" stroke="#60A5FA" stroke-width="4"/>
    <circle cx="160" cy="210" r="28" fill="url(#wheel-gradient2)"/>
    <circle cx="540" cy="210" r="48" fill="#1F2937" stroke="#60A5FA" stroke-width="4"/>
    <circle cx="540" cy="210" r="28" fill="url(#wheel-gradient2)"/>
    <path d="M 560 150 L 620 150 L 630 170 L 560 170 Z" fill="#3B82F6" opacity="0.8"/>
    <circle cx="110" cy="150" r="18" fill="#3B82F6" opacity="0.9"/>
  </g>
  <defs>
    <linearGradient id="bg-gradient2" x1="0" y1="0" x2="800" y2="600">
      <stop offset="0%" stop-color="#E0F2FE"/>
      <stop offset="100%" stop-color="#F3F4F6"/>
    </linearGradient>
    <linearGradient id="car-gradient2" x1="0" y1="0" x2="640" y2="0">
      <stop offset="0%" stop-color="#60A5FA"/>
      <stop offset="50%" stop-color="#93C5FD"/>
      <stop offset="100%" stop-color="#60A5FA"/>
    </linearGradient>
    <radialGradient id="wheel-gradient2">
      <stop offset="0%" stop-color="#93C5FD"/>
      <stop offset="100%" stop-color="#60A5FA"/>
    </radialGradient>
  </defs>
  <text x="400" y="500" font-family="Arial, sans-serif" font-size="32" font-weight="bold" 
        fill="#1E3A8A" text-anchor="middle">Velocity X</text>
</svg>
