<svg width="800" height="600" viewBox="0 0 800 600" fill="none" xmlns="http://www.w3.org/2000/svg">
  <rect width="800" height="600" fill="url(#bg-gradient3)"/>
  <g transform="translate(70, 170)">
    <path d="M 70 170 L 160 115 L 310 90 L 500 90 L 620 115 L 660 170 L 660 220 L 70 220 Z" 
          fill="url(#car-gradient3)" stroke="#1E3A8A" stroke-width="4"/>
    <path d="M 220 115 L 280 65 L 450 65 L 500 115 Z" 
          fill="rgba(59, 130, 246, 0.4)" stroke="#3B82F6" stroke-width="3"/>
    <ellipse cx="200" cy="135" rx="50" ry="35" fill="rgba(59, 130, 246, 0.25)"/>
    <ellipse cx="530" cy="135" rx="50" ry="35" fill="rgba(59, 130, 246, 0.25)"/>
    <circle cx="170" cy="220" r="50" fill="#111827" stroke="#3B82F6" stroke-width="5"/>
    <circle cx="170" cy="220" r="30" fill="url(#wheel-gradient3)"/>
    <circle cx="560" cy="220" r="50" fill="#111827" stroke="#3B82F6" stroke-width="5"/>
    <circle cx="560" cy="220" r="30" fill="url(#wheel-gradient3)"/>
    <path d="M 580 160 L 640 160 L 650 180 L 580 180 Z" fill="#60A5FA" opacity="0.9"/>
    <circle cx="120" cy="160" r="20" fill="#60A5FA" opacity="1"/>
    <path d="M 300 95 L 450 95" stroke="#E0F2FE" stroke-width="3" opacity="0.6"/>
  </g>
  <defs>
    <linearGradient id="bg-gradient3" x1="0" y1="0" x2="800" y2="600">
      <stop offset="0%" stop-color="#DBEAFE"/>
      <stop offset="100%" stop-color="#F9FAFB"/>
    </linearGradient>
    <linearGradient id="car-gradient3" x1="0" y1="0" x2="660" y2="0">
      <stop offset="0%" stop-color="#1E3A8A"/>
      <stop offset="50%" stop-color="#3B82F6"/>
      <stop offset="100%" stop-color="#1E3A8A"/>
    </linearGradient>
    <radialGradient id="wheel-gradient3">
      <stop offset="0%" stop-color="#60A5FA"/>
      <stop offset="100%" stop-color="#3B82F6"/>
    </radialGradient>
  </defs>
  <text x="400" y="500" font-family="Arial, sans-serif" font-size="32" font-weight="bold" 
        fill="#1E3A8A" text-anchor="middle">Thunder RS</text>
</svg>
