<svg width="800" height="600" viewBox="0 0 800 600" fill="none" xmlns="http://www.w3.org/2000/svg">
  <rect width="800" height="600" fill="url(#bg-gradient4)"/>
  <g transform="translate(90, 190)">
    <path d="M 55 155 L 145 105 L 295 85 L 455 85 L 565 105 L 620 155 L 620 205 L 55 205 Z" 
          fill="url(#car-gradient4)" stroke="#3B82F6" stroke-width="3"/>
    <path d="M 205 105 L 255 65 L 405 65 L 455 105 Z" 
          fill="rgba(96, 165, 250, 0.35)" stroke="#60A5FA" stroke-width="2"/>
    <ellipse cx="185" cy="125" rx="42" ry="30" fill="rgba(96, 165, 250, 0.22)"/>
    <ellipse cx="485" cy="125" rx="42" ry="30" fill="rgba(96, 165, 250, 0.22)"/>
    <circle cx="155" cy="205" r="46" fill="#1F2937" stroke="#3B82F6" stroke-width="4"/>
    <circle cx="155" cy="205" r="26" fill="url(#wheel-gradient4)"/>
    <circle cx="520" cy="205" r="46" fill="#1F2937" stroke="#3B82F6" stroke-width="4"/>
    <circle cx="520" cy="205" r="26" fill="url(#wheel-gradient4)"/>
    <path d="M 540 145 L 600 145 L 610 165 L 540 165 Z" fill="#60A5FA" opacity="0.85"/>
    <circle cx="105" cy="145" r="16" fill="#60A5FA" opacity="0.9"/>
  </g>
  <defs>
    <linearGradient id="bg-gradient4" x1="0" y1="0" x2="800" y2="600">
      <stop offset="0%" stop-color="#E0F2FE"/>
      <stop offset="100%" stop-color="#F9FAFB"/>
    </linearGradient>
    <linearGradient id="car-gradient4" x1="0" y1="0" x2="620" y2="0">
      <stop offset="0%" stop-color="#3B82F6"/>
      <stop offset="50%" stop-color="#60A5FA"/>
      <stop offset="100%" stop-color="#3B82F6"/>
    </linearGradient>
    <radialGradient id="wheel-gradient4">
      <stop offset="0%" stop-color="#60A5FA"/>
      <stop offset="100%" stop-color="#3B82F6"/>
    </radialGradient>
  </defs>
  <text x="400" y="500" font-family="Arial, sans-serif" font-size="32" font-weight="bold" 
        fill="#1E3A8A" text-anchor="middle">Storm Elite</text>
</svg>
