<svg width="800" height="600" viewBox="0 0 800 600" fill="none" xmlns="http://www.w3.org/2000/svg">
  <rect width="800" height="600" fill="url(#bg-gradient5)"/>
  <g transform="translate(85, 185)">
    <path d="M 60 160 L 150 110 L 300 88 L 470 88 L 580 110 L 630 160 L 630 210 L 60 210 Z" 
          fill="url(#car-gradient5)" stroke="#1E3A8A" stroke-width="3"/>
    <path d="M 210 110 L 265 68 L 415 68 L 465 110 Z" 
          fill="rgba(59, 130, 246, 0.38)" stroke="#3B82F6" stroke-width="2"/>
    <ellipse cx="192" cy="128" rx="44" ry="31" fill="rgba(59, 130, 246, 0.23)"/>
    <ellipse cx="498" cy="128" rx="44" ry="31" fill="rgba(59, 130, 246, 0.23)"/>
    <circle cx="158" cy="210" r="47" fill="#1F2937" stroke="#60A5FA" stroke-width="4"/>
    <circle cx="158" cy="210" r="27" fill="url(#wheel-gradient5)"/>
    <circle cx="532" cy="210" r="47" fill="#1F2937" stroke="#60A5FA" stroke-width="4"/>
    <circle cx="532" cy="210" r="27" fill="url(#wheel-gradient5)"/>
    <path d="M 552 148 L 612 148 L 622 168 L 552 168 Z" fill="#3B82F6" opacity="0.87"/>
    <circle cx="108" cy="148" r="17" fill="#3B82F6" opacity="0.92"/>
  </g>
  <defs>
    <linearGradient id="bg-gradient5" x1="0" y1="0" x2="800" y2="600">
      <stop offset="0%" stop-color="#DBEAFE"/>
      <stop offset="100%" stop-color="#F3F4F6"/>
    </linearGradient>
    <linearGradient id="car-gradient5" x1="0" y1="0" x2="630" y2="0">
      <stop offset="0%" stop-color="#1E3A8A"/>
      <stop offset="50%" stop-color="#3B82F6"/>
      <stop offset="100%" stop-color="#60A5FA"/>
    </linearGradient>
    <radialGradient id="wheel-gradient5">
      <stop offset="0%" stop-color="#93C5FD"/>
      <stop offset="100%" stop-color="#3B82F6"/>
    </radialGradient>
  </defs>
  <text x="400" y="500" font-family="Arial, sans-serif" font-size="32" font-weight="bold" 
        fill="#1E3A8A" text-anchor="middle">Apex Pro</text>
</svg>
