<svg width="800" height="600" viewBox="0 0 800 600" fill="none" xmlns="http://www.w3.org/2000/svg">
  <rect width="800" height="600" fill="url(#bg-gradient6)"/>
  <g transform="translate(95, 192)">
    <path d="M 58 158 L 148 108 L 298 86 L 462 86 L 572 108 L 622 158 L 622 208 L 58 208 Z" 
          fill="url(#car-gradient6)" stroke="#3B82F6" stroke-width="3"/>
    <path d="M 208 108 L 258 66 L 408 66 L 458 108 Z" 
          fill="rgba(96, 165, 250, 0.36)" stroke="#60A5FA" stroke-width="2"/>
    <ellipse cx="188" cy="126" rx="43" ry="30" fill="rgba(96, 165, 250, 0.24)"/>
    <ellipse cx="492" cy="126" rx="43" ry="30" fill="rgba(96, 165, 250, 0.24)"/>
    <circle cx="156" cy="208" r="46" fill="#1F2937" stroke="#60A5FA" stroke-width="4"/>
    <circle cx="156" cy="208" r="26" fill="url(#wheel-gradient6)"/>
    <circle cx="524" cy="208" r="46" fill="#1F2937" stroke="#60A5FA" stroke-width="4"/>
    <circle cx="524" cy="208" r="26" fill="url(#wheel-gradient6)"/>
    <path d="M 544 146 L 604 146 L 614 166 L 544 166 Z" fill="#60A5FA" opacity="0.86"/>
    <circle cx="106" cy="146" r="16" fill="#60A5FA" opacity="0.91"/>
  </g>
  <defs>
    <linearGradient id="bg-gradient6" x1="0" y1="0" x2="800" y2="600">
      <stop offset="0%" stop-color="#E0F2FE"/>
      <stop offset="100%" stop-color="#F9FAFB"/>
    </linearGradient>
    <linearGradient id="car-gradient6" x1="0" y1="0" x2="622" y2="0">
      <stop offset="0%" stop-color="#60A5FA"/>
      <stop offset="50%" stop-color="#3B82F6"/>
      <stop offset="100%" stop-color="#60A5FA"/>
    </linearGradient>
    <radialGradient id="wheel-gradient6">
      <stop offset="0%" stop-color="#60A5FA"/>
      <stop offset="100%" stop-color="#3B82F6"/>
    </radialGradient>
  </defs>
  <text x="400" y="500" font-family="Arial, sans-serif" font-size="32" font-weight="bold" 
        fill="#1E3A8A" text-anchor="middle">Fusion Z</text>
</svg>
